<svg width="20" height="20" viewBox="0 0 20 20" fill="none" xmlns="http://www.w3.org/2000/svg">
<path d="M7.49834 6H13.4917V8.18182H7.49834V6ZM14.131 9.81818H6.86903C6.63855 9.81818 6.41751 9.91817 6.25453 10.0962C6.09156 10.2742 6 10.5156 6 10.7673H6.00999V12H15V10.7673C15 10.5156 14.9084 10.2742 14.7455 10.0962C14.5825 9.91817 14.3614 9.81818 14.131 9.81818Z" fill="#F9B90F"/>
<path d="M18 0H2C0.9 0 0 0.9 0 2V18C0 19.1 0.9 20 2 20H18C19.1 20 20 19.1 20 18V2C20 0.9 19.1 0 18 0ZM15.25 15C14.84 15 14.5 14.66 14.5 14.25V13.5H5.5V14.25C5.5 14.66 5.16 15 4.75 15C4.34 15 4 14.66 4 14.25V10.87C4 9.87 4.62 9.02 5.5 8.67V7C5.5 5.9 6.4 5 7.5 5H12.5C13.6 5 14.5 5.9 14.5 7V8.67C15.38 9.02 16 9.87 16 10.87V14.25C16 14.66 15.66 15 15.25 15Z" fill="#F9B90F"/>
</svg>
